<?xml version="1.0" encoding="utf-8"?>
<!-- Generator: Adobe Illustrator 27.7.0, SVG Export Plug-In . SVG Version: 6.00 Build 0)  -->
<svg version="1.1" id="Layer_1" xmlns="http://www.w3.org/2000/svg" xmlns:xlink="http://www.w3.org/1999/xlink" x="0px" y="0px"
	 viewBox="0 0 256 256" style="enable-background:new 0 0 256 256;" xml:space="preserve">
<style type="text/css">
	.st0{fill:url(#SVGID_1_);}
	.st1{fill:#FFFFFF;}
</style>
<linearGradient id="SVGID_1_" gradientUnits="userSpaceOnUse" x1="127.9995" y1="18.8486" x2="127.9995" y2="240.1354">
	<stop  offset="0" style="stop-color:#FF6A6E"/>
	<stop  offset="0.1682" style="stop-color:#D8192B"/>
	<stop  offset="0.8686" style="stop-color:#7B192B"/>
</linearGradient>
<polygon class="st0" points="50,13 206,13 256,76.34 128,244 0,76.34 "/>
<g>
	<path class="st1" d="M96.4,116.13h56.97c4.15,0.08,7.22,0.84,9.21,2.27c2.07,1.36,3.11,3.63,3.11,6.82
		c-0.16,4.07-2.55,8.34-7.18,12.81c-4.79,4.55-11.97,9.06-21.54,13.52h41.29c1.99,0,3.47,0.44,4.43,1.32
		c0.88,0.8,1.32,2.27,1.32,4.43c0,1.92-0.36,3.35-1.08,4.31c-1.04,1.36-2.59,2.03-4.67,2.03h-37.58c1.28,4.23,1.99,8.66,2.15,13.28
		c-0.56,7.02-2.04,11.85-4.43,14.48c-2.71,2.87-6.98,4.31-12.81,4.31c-9.33-0.24-16.72-1.4-22.14-3.47
		c-1.76-1.36-2.67-3.27-2.75-5.75c0-1.76,0.48-3.27,1.44-4.55c0.8-1.04,1.92-1.56,3.35-1.56s2.95,0.16,4.55,0.48
		c5.34,1.12,9.69,1.71,13.04,1.79c3.35-0.24,5.1-1.48,5.27-3.71c0.32-1.28,0.48-2.55,0.48-3.83c-0.24-3.83-1.04-7.66-2.39-11.49
		H77.61c-1.84,0-3.27-0.52-4.31-1.56c-0.96-0.88-1.44-2.47-1.44-4.79c0-1.92,0.48-3.39,1.44-4.43c1.04-0.88,2.47-1.32,4.31-1.32
		h42.84c-0.48-0.72-0.92-1.36-1.32-1.92c-1.12-1.83-1.68-3.27-1.68-4.31c0-1.59,0.64-2.95,1.91-4.07c1.2-0.96,2.91-1.47,5.15-1.56
		c1.75,0,3.23,0.56,4.43,1.68c4.95-1.99,9.21-4.07,12.8-6.22c4.47-2.71,6.7-4.55,6.7-5.5c0-0.96-0.44-1.44-1.32-1.44H96.4
		c-1.92,0-3.35-0.56-4.31-1.68c-0.96-0.96-1.44-2.51-1.44-4.67c0-1.68,0.52-3.11,1.56-4.31C93.33,116.61,94.73,116.13,96.4,116.13z
		 M127.52,83.7c2.55,0,4.35,0.48,5.39,1.44c1.44,1.28,2.15,2.99,2.15,5.15v3.95h35.9c6.06,0,9.09,3.47,9.09,10.41v14.48
		c0,2.23-0.52,3.75-1.55,4.55c-1.28,1.04-2.95,1.56-5.03,1.56c-2.71,0-4.59-0.6-5.62-1.79c-0.72-1.04-1.08-2.47-1.08-4.31v-11.01
		c0-1.04-0.68-1.56-2.04-1.56H89.58c-0.96,0-1.44,0.52-1.44,1.56v11.85c0,2.47-0.44,4.07-1.32,4.79c-1.04,0.96-2.79,1.44-5.27,1.44
		c-2.47,0-4.15-0.44-5.03-1.32c-1.12-0.88-1.68-2.51-1.68-4.91v-15.32c0-6.94,2.99-10.41,8.98-10.41h35.9v-3.95
		c0-1.83,0.72-3.55,2.15-5.15C122.85,84.18,124.73,83.7,127.52,83.7z"/>
</g>
<g>
	<path class="st1" d="M74.69,37.82h34.63v8.37l-18.84,19.2h20v9.77h-37.2v-9.28l17.9-18.28H74.69V37.82z"/>
	<path class="st1" d="M116.87,23.61h14.31v9.74h-14.31V23.61z M116.87,37.82h14.31v37.34h-14.31V37.82z"/>
	<path class="st1" d="M180.4,35.22l-14.24,1.76c-0.38-1.99-1-3.4-1.88-4.22c-0.88-0.82-1.96-1.23-3.25-1.23
		c-2.32,0-4.12,1.17-5.41,3.52c-0.94,1.69-1.63,5.3-2.07,10.83c1.71-1.73,3.47-3.02,5.27-3.85c1.8-0.83,3.89-1.25,6.26-1.25
		c4.59,0,8.48,1.64,11.65,4.92c3.18,3.28,4.76,7.44,4.76,12.48c0,3.4-0.8,6.5-2.41,9.32s-3.83,4.94-6.68,6.38s-6.42,2.16-10.71,2.16
		c-5.16,0-9.29-0.88-12.41-2.64s-5.61-4.56-7.47-8.42c-1.86-3.85-2.79-8.96-2.79-15.31c0-9.3,1.96-16.12,5.87-20.44
		c3.91-4.32,9.34-6.49,16.28-6.49c4.1,0,7.34,0.47,9.72,1.42s4.35,2.34,5.92,4.17S179.58,32.45,180.4,35.22z M154.03,58.17
		c0,2.79,0.7,4.97,2.11,6.56s3.13,2.37,5.17,2.37c1.88,0,3.45-0.71,4.71-2.14c1.27-1.43,1.9-3.56,1.9-6.4
		c0-2.91-0.66-5.12-1.97-6.64c-1.31-1.52-2.94-2.29-4.89-2.29c-1.99,0-3.66,0.74-5.01,2.21S154.03,55.43,154.03,58.17z"/>
</g>
</svg>
